<?xml version="1.0" encoding="utf-8"?>
<!-- Generator: Adobe Illustrator 27.0.0, SVG Export Plug-In . SVG Version: 6.00 Build 0)  -->
<svg version="1.1" id="Layer_1" xmlns="http://www.w3.org/2000/svg" xmlns:xlink="http://www.w3.org/1999/xlink" x="0px" y="0px"
	 viewBox="0 0 3000 3000" style="enable-background:new 0 0 3000 3000;" xml:space="preserve">
<style type="text/css">
	.st0{fill:#242057;}
	.st1{fill:#12102A;}
	.st2{fill:#FEFEFE;}
	.st3{fill:#EE3F27;}
	.st4{fill:#242056;}
	.st5{fill:#121029;}
	.st6{fill:#110F29;}
	.st7{fill:#EFE920;}
	.st8{fill:#EFE91F;}
	.st9{fill:#231F57;}
	.st10{fill:#252157;}
</style>
<g>
	<path class="st0" d="M1135.64,273.72c4.45,1.14,4.75-2.64,6.01-5.16c32.55-65.27,78.59-118.67,140.2-158.07
		c51.73-33.08,108.02-53.44,169.67-56.32c160.86-7.5,276.51,65.25,356,201.73c2.29,3.93,1.89,10.88,9.24,10.64
		c5.13,16.29,13.18,31.41,18.66,47.61c10.51,31.04,17.51,62.72,20.58,95.32c5.29,56.11,1.05,111.37-15.34,165.42
		c-16.12,53.17-41.96,101.15-77.78,143.71c-36.04,42.83-78.88,77.09-129.53,100.94c-41.41,19.49-84.99,30.84-131,34.05
		c-45.06,3.14-88.8-2.22-131.65-15.34c-52.39-16.04-98.73-42.83-139.55-79.56c-39.57-35.61-70.47-77.48-93.41-125.3
		c-23.5-48.98-36.1-100.64-39.8-154.95c-3.45-50.63,3.3-99.71,16.87-148.16C1120.23,310.91,1128.66,292.57,1135.64,273.72z"/>
	<path class="st1" d="M1135.64,273.72c2.46,3.67,0.61,7.18-0.83,10.37c-13.99,30.89-23.53,63.09-29.03,96.53
		c-2.41,14.65-4.86,29.26-5.13,44.19c-0.2,10.92-2.28,21.73-1.77,32.74c2.59,55.59,11.99,109.59,34.8,160.9
		c18.58,41.79,42.83,79.49,73.85,113.25c56.29,61.26,125.36,99.08,206.58,114.89c24.11,4.69,48.79,6.91,73.41,5.82
		c65.89-2.92,127.42-20.6,183.33-56.29c58.14-37.11,103.14-86.22,136.16-146.82c20.45-37.52,33.68-77.39,42.21-118.88
		c7.52-36.56,8.3-73.92,5.6-110.9c-3.56-48.68-15.01-95.81-35.97-140.32c-1.7-3.62-6.88-7.6-2.08-12.65
		c43.75-19.93,87.46-39.95,131.26-59.77c91.24-41.29,182.54-82.44,273.76-123.78c5.14-2.33,8.35-3.36,12.75,2.26
		c140.97,179.64,282.18,359.09,423.35,538.58c0.92,1.18,1.81,2.38,3.36,4.45c-23.82,6.93-46.56,15.02-68.45,25.25
		c-54.77,25.58-104.28,58.14-140.82,107.57c-27.67,37.42-42.17,79.37-42.19,125.99c-0.08,252.72-0.01,505.43-0.19,758.14
		c0,6.48,1.68,7.94,8.02,7.91c54.94-0.27,109.88-0.09,164.81-0.27c5.19-0.02,9.27,1.29,13.29,4.44
		c59.23,46.45,118.49,92.87,177.92,139.07c4.48,3.48,4.35,7.42,4.35,11.97c-0.02,107.43-0.02,214.87-0.02,322.3
		c0,49.14-0.16,98.28,0.17,147.42c0.05,7.66-1.2,10.47-9.8,10.28c-29.29-0.65-58.6-0.15-87.89-0.35c-5.22-0.04-9.02,1.43-12.99,4.97
		c-141.11,126.03-288.72,243.85-444.2,351.75c-96.96,67.29-196.67,130.06-301.6,184.28c-76.41,39.48-154.88,74.05-237.77,97.77
		c-51.15,14.63-103.11,24.53-156.52,25.31c-42.79,0.63-84.26-7.81-125.14-19.24c-101.53-28.4-197.42-70.92-291.52-117.77
		c-122.07-60.78-239.3-129.94-352.66-205.64c-144.78-96.68-282.65-202.12-407.13-324.3c-3.57-3.5-7.1-4.91-12.04-4.88
		c-36.01,0.18-72.03-0.12-108.04,0.28c-7.39,0.08-9-2.12-9-9.2c0.2-168.78,0.18-337.56,0.04-506.35c0-5.41,1.64-8.83,5.82-12.28
		c59.97-49.47,119.81-99.09,179.57-148.8c3.77-3.14,7.5-4.42,12.37-4.4c42.42,0.16,84.85-0.05,127.27,0.24
		c6.56,0.05,8.77-1.19,8.77-8.36c-0.21-238.68-0.16-477.35-0.21-716.03c0-13.98-5.22-26.93-9.8-39.73
		c-38.57-107.7-105.28-191.38-209.08-242.98c-11.16-5.55-22.69-10.44-34.35-14.83c-6.73-2.53-6.35-4.59-2.22-9.61
		c46.46-56.54,92.74-113.22,139.02-169.9c94.09-115.24,188.2-230.46,282.05-345.88c4.53-5.57,7.54-5.56,13.25-2.37
		c132.76,73.94,265.61,147.71,398.44,221.52C1133.81,272.15,1134.69,273,1135.64,273.72z"/>
	<path class="st2" d="M1526.72,348.45c-7.1,18.3-14.21,36.6-21.3,54.9c-4.4,11.36-8.72,22.75-13.15,34.09
		c-0.97,2.48-1.48,5.77-4.86,5.96c-4.08,0.24-4.53-3.5-5.5-6.25c-9.65-27.27-19.22-54.58-28.81-81.87
		c-0.38-1.07-0.79-2.13-3.16-3.22c0,3.01,0,6.01,0,9.02c0,135.22,0,270.44,0,405.66c0,12.62,0,12.62-13.02,12.62
		c-6.72,0-13.46-0.4-20.14,0.11c-6.39,0.49-8.16-2.41-7.67-8.04c0.16-1.82,0.03-3.66,0.03-5.49c0-189.55,0-379.11,0-568.66
		c0-11.32,0.26-10.52-10.68-6.9c-16,5.29-21.36,14.43-21.28,32.08c0.81,178.87,0.49,357.74,0.49,536.61
		c0,13.43-0.87,13.95-12.29,7.53c-2.12-1.19-4.24-2.4-6.37-3.57c-17.66-9.67-26.38-22.79-26.41-44.69
		c-0.16-97.37,1.56-194.68,4.1-292c1.7-65.28,3.06-130.58,4.53-195.87c0.14-6.06,0.02-12.12,0.02-18.97
		c-11.84,5.6-23,12.03-31.33,22.58c-3.62,4.58-4.09,9.92-4.09,15.56c0.04,45.78-0.25,91.57,0.07,137.35
		c0.06,8.15-2.45,10.94-10.42,10.29c-6.97-0.57-14.07-0.61-21.04,0.01c-8.28,0.73-10.49-2.82-10.42-10.55
		c0.29-31.11,0.12-62.22,0.12-94.18c-6.4,0.92-8.25,4.29-10.47,6.79c-28.82,32.37-41.1,71.37-44.89,113.6
		c-0.98,10.92-0.68,21.94-1.2,32.91c-0.3,6.42,1.71,8.9,8.82,8.78c26.55-0.48,53.11,0.05,79.66-0.34c7.61-0.11,9.85,2.21,9.82,9.88
		c-0.26,82.41-0.15,164.83-0.21,247.24c0,2.9,1.37,6.56-1.72,8.49c-3.92,2.45-6.93-0.93-9.84-2.81
		c-57.55-37.15-94.1-89.98-115.23-154.37c-2.05-6.24-0.34-8.46,6.04-8.34c10.37,0.2,20.76,0.14,31.13,0.01
		c4.28-0.05,7.2,0.96,7.13,5.97c-0.36,23.22,22.28,51.66,39.66,64.17c2.81-1.59,1.48-4.32,1.48-6.46
		c0.09-39.07-0.12-78.14,0.24-117.21c0.06-6.77-2.16-7.87-8.26-7.8c-26.86,0.32-53.72-0.09-80.58,0.29
		c-7.37,0.11-10.01-2.16-10.86-9.62c-11.29-98.38,23.55-179.83,90.57-249.83c49.1-51.28,110-79.59,178.64-93.29
		c8.28-1.65,12.74,0.6,14.99,9.67c11.99,48.34,24.62,96.52,37.72,147.43c4.9-18.86,9.21-35.24,13.4-51.65
		c8.06-31.6,16.25-63.16,23.92-94.85c1.97-8.11,5.81-10.72,13.53-8.12c1.15,0.39,2.37,0.59,3.54,0.92
		c22.07,6.33,23.08,7.68,23.08,30.42c0,197.79-0.06,395.59,0.19,593.38c0.01,8.92-1.59,13.06-11.37,11.69
		c-5.99-0.84-12.2-0.35-18.29-0.11c-4.81,0.19-6.65-1.88-6.36-6.51c0.17-2.74,0.02-5.49,0.02-8.24c0-138.56,0-277.11,0-415.67
		C1527.87,348.82,1527.29,348.63,1526.72,348.45z"/>
	<path class="st2" d="M1625.93,227.81c0,57.82,0,114.26,0,170.71c0,21.35,0,21.35,21.14,21.35c13.47,0,13.47,0,13.47,13.2
		c0,7.63-0.22,15.27,0.07,22.89c0.23,5.82-1.87,8.43-7.92,8.16c-7-0.32-14.08,0.39-21.04-0.21c-6.28-0.55-7.44,1.88-7.35,7.61
		c0.72,42.71,1.23,85.42,1.6,128.13c0.36,41.8,0.01,83.6-1.52,125.39c-0.15,3.96-0.27,7.94-0.75,11.86
		c-2.49,20.35-11.96,29.89-32.22,33.22c-5.88,0.97-8.91-0.5-8.51-6.85c0.11-1.82,0.02-3.66,0.02-5.49c0-194.1,0-388.19,0-582.29
		c0-13.5,0.7-14.12,13.34-9.42c29.3,10.9,52.91,29.78,73.45,52.88c2.12,2.38,3.03,5.14,2.99,8.37c-0.1,8.54-0.04,17.09-0.05,25.63
		c0,2.46,0.13,5.05-2.56,6.34c-2.78,1.34-4.57-0.7-6.41-2.24c-7-5.88-13.93-11.84-20.97-17.68
		C1637.85,235.35,1633.13,231.08,1625.93,227.81z"/>
	<path class="st2" d="M1680.75,466.12c0-75.67-0.02-151.34,0.06-227.01c0-3.46-1.66-7.89,2.33-10.05c3.92-2.12,6.85,1.61,9.74,3.39
		c40.03,24.75,66.88,60.77,86.68,102.6c17.99,38.01,28.88,78.15,34.88,119.71c0.96,6.65-0.75,9.47-7.99,9.4
		c-27.15-0.29-54.31,0.12-81.46-0.28c-6.87-0.1-8.38,1.58-8.39,8.58c-0.03,65.9-0.5,131.79-1.01,197.69
		c-0.11,14.38-15.7,31.9-29.45,33.94c-3.05,0.45-4.81-0.79-5.15-3.65c-0.33-2.71-0.22-5.48-0.22-8.22
		C1680.75,616.85,1680.75,541.49,1680.75,466.12z"/>
	<path class="st3" d="M446.84,1610.7c36.93-0.04,73.87-0.23,110.8,0.03c6.61,0.05,8.83-1.38,8.83-8.5
		c-0.2-242.66-0.08-485.32-0.34-727.97c-0.02-18.18-7.51-35.11-13.9-51.83C508.31,707.44,433.12,621.53,318.48,572.6
		c-1.66-0.71-3.23-1.62-5.69-2.87c15.61-19.17,30.92-38.02,46.28-56.83C480.18,364.52,601.36,216.2,722.23,67.61
		c5.81-7.14,9.57-6.79,16.86-2.72c103.79,57.97,207.77,115.61,311.7,173.33c23.98,13.32,47.85,26.86,71.99,39.88
		c5.14,2.77,5.09,5.19,3.08,9.92c-26.27,61.75-36.65,126.35-32.21,193.07c11.36,170.48,123.42,319.55,287.06,363.03
		c113.8,30.24,219.79,9.36,314.85-60.27c72.77-53.3,120.77-124.7,146.19-211.25c12.73-43.34,18.72-87.62,17.22-132.73
		c-1.79-53.98-12.42-106.18-34.54-155.68c-2.87-6.43-2.26-9.04,4.36-12.01c108.14-48.6,216.16-97.46,324.2-146.28
		c21.38-9.66,42.85-19.12,64.01-29.23c6.79-3.25,10.45-3.07,15.59,3.48c117.83,150.26,235.97,300.27,354.05,450.34
		c17.16,21.81,33.96,43.92,51.59,65.34c5.47,6.65,2.93,7.53-3.25,9.63c-53.64,18.19-103.21,43.95-146.42,80.92
		c-44.92,38.43-76.24,85.23-86.49,144.51c-2.29,13.25-3.1,26.64-3.1,40.09c0.01,254.26,0.04,508.51-0.16,762.77
		c-0.01,7.78,1.52,10.3,9.89,10.23c48.53-0.4,97.06-0.12,145.59-0.07c2.58,3.29-0.22,5.68-1.53,8.17
		c-16.04,30.32-35.91,58.12-56.55,85.39c-30.76,40.65-64.29,79.01-98.46,116.77c-10.63,11.74-20.74,24.02-32.48,34.75
		c-14.88,13.61-27.22,29.69-41.83,43.54c-40.94,38.79-81.33,78.15-123.84,115.3c-79.39,69.37-162.27,134.06-250.43,191.93
		c-47.49,31.18-96.48,59.81-147.35,85.03c-67.19,33.32-136.62,60.64-210.67,74.88c-23.71,4.56-47.67,7.52-71.68,8.07
		c-28.77,0.66-56.96-4.79-84.77-12.36c-75.32-20.52-145.02-54.12-213.55-90.6c-66.62-35.47-130.46-75.49-192.78-117.94
		c-69.89-47.61-137.53-98.27-202.42-152.53c-38.37-32.08-75.98-64.98-112.53-99.16c-27.65-25.87-54.71-52.34-80.75-79.72
		c-57.48-60.43-111.48-123.75-154.28-195.83c-10.92-18.39-20.61-37.42-29.41-56.89C447.33,1619.08,444.2,1615.27,446.84,1610.7z"/>
	<path class="st4" d="M2574.81,1658.57c13.36-3.34,21.55,5.82,30.5,12.82c54.05,42.26,107.98,84.66,162.13,126.79
		c3.82,2.97,5.48,5.71,5.48,10.48c-0.1,155.36-0.11,310.71,0.04,466.07c0.01,6.38-1.89,8.42-8.31,8.34
		c-25.02-0.31-50.11,0.86-75.06-0.51c-13.89-0.76-23.6,4.29-33.06,13.11c-30.68,28.6-63.06,55.25-94.9,82.54
		c-51.67,44.28-104.79,86.75-158.53,128.43c-43.19,33.5-87.15,66.04-131.44,98.07c-43.85,31.71-88.4,62.48-133.91,91.79
		c-53.71,34.59-108.15,67.96-164.1,98.88c-60.54,33.46-122.36,64.17-186.46,90.18c-56.42,22.89-114.19,41.65-174.18,52.62
		c-24.72,4.52-49.77,6.78-75,8.14c-49.66,2.67-96.97-8.36-144.02-21.49c-59.57-16.62-117.09-39.16-173.58-64.08
		c-63.56-28.03-125.84-58.77-186.92-91.97c-51.62-28.06-102.67-57.05-152.76-87.71c-67.71-41.44-134.3-84.59-198.88-130.83
		c-29.89-21.4-59.78-42.77-88.99-65.09c-32.81-25.07-65.3-50.53-96.97-77.04c-39.18-32.81-77.8-66.18-114.7-101.58
		c-9.88-9.47-19.91-18.83-29.69-28.43c-3.33-3.26-6.49-5.22-11.33-3.34c-2.18,0.85-4.79,0.78-7.2,0.78
		c-30.22,0.05-60.43,0.08-90.65,0.01c-12.57-0.03-13.41-0.99-13.41-13.47c0-163.9,0.09-327.81-0.24-491.71
		c-0.02-9.23,3.82-14.6,10.23-19.86c27.69-22.74,55.22-45.66,82.81-68.52c29-24.02,57.95-48.1,87.01-72.04
		c5.75-4.74,12.02-7.38,18.64-1.16c3.34,0.5,4.09,3.35,5.15,5.82c27.66,64.54,67.31,121.55,110.75,176.15
		c26.6,33.44,55.6,64.74,84.5,96.2c26.06,28.38,53.94,54.8,81.98,81.02c56.39,52.71,115.35,102.49,176.37,149.83
		c59.84,46.43,121.54,90.24,184.97,131.6c45.26,29.51,91.55,57.33,139.1,83.02c51.86,28.02,104.67,54.02,160.02,74.56
		c37.85,14.05,76.33,25.84,116.56,30.76c31.74,3.88,63.28,0.75,94.56-4.51c73.13-12.31,141.86-37.88,208.56-69.66
		c89.34-42.57,172.12-95.75,252.02-153.78c56.09-40.74,109.76-84.47,162.13-129.82c58.62-50.76,114.44-104.56,167.86-160.69
		c62.28-65.44,122-133.18,171.46-209.22c9.33-14.34,17.79-29.18,26.25-44.03C2571.14,1663.36,2572.41,1660.58,2574.81,1658.57z"/>
	<path class="st2" d="M2574.81,1658.57c-11.95,27.9-28.87,52.89-46.28,77.48c-65.47,92.46-142.51,174.78-223.52,253.55
		c-99.68,96.93-206.02,185.81-321.16,263.91c-88.53,60.05-181.01,112.82-281.85,149.66c-58.11,21.23-117.76,36.16-179.87,38.41
		c-38.83,1.41-76.27-7.53-113.09-19.04c-83.37-26.07-161.04-64.81-236.23-108.5c-197.78-114.91-377.71-253.09-537.9-416.55
		c-64.41-65.72-123.21-136.07-170.49-215.46c-14.04-23.58-25.73-48.31-37.04-73.25c-0.94-5.6,3.4-3.58,5.69-3.59
		c5.22-0.01,11.58-2.25,13.78,5.5c13.95,37.04,34.13,70.73,56.14,103.35c50.22,74.42,110.11,140.67,174.13,203.24
		c140.82,137.64,295.83,257.12,464.03,359.38c74.55,45.32,151.42,86.32,233.43,116.86c41.79,15.56,84.21,28.97,129.19,31.34
		c35.31,1.86,69.95-3.5,104.24-11.17c104.79-23.46,199.82-69.95,290.88-125.16c156.57-94.94,296.01-211.46,425.2-340.62
		c70.4-70.38,137.17-143.99,194.8-225.43c13.2-18.65,25.81-37.72,35.41-58.57C2559.05,1654.12,2567.83,1659.78,2574.81,1658.57z"/>
	<path class="st0" d="M1721.72,323.09c24.26,24.24,39.41,52.9,48.79,84.8c6.22,21.15,5.97,21.23-15.95,21.23
		c-8.84,0-17.68-0.21-26.5,0.09c-4.71,0.16-6.44-1.36-6.42-6.19C1721.79,390.13,1721.72,357.25,1721.72,323.09z"/>
	<path class="st2" d="M1498.45,1916.83c-235.02,0-470.03-0.04-705.05,0.16c-7.6,0.01-10.27-1.18-10.24-9.74
		c0.66-197.78,1.12-395.55,1.27-593.33c0.12-161.46-0.55-322.92,0.03-484.37c0.08-23.75-6-44.85-15.5-65.85
		c-23.93-52.89-50.4-104.29-86.45-150.17c-6.21-7.9-12.88-15.49-19.91-22.66c-14.9-15.2-31.55-27.89-52.69-33.25
		c-5.62-1.42-6.02-2.94-2.11-7.47c52.63-60.93,105.07-122.02,157.55-183.07c15.11-17.58,30.34-35.05,45.23-52.81
		c3.51-4.19,5.88-5.11,11.02-2.04c69.87,41.75,139.83,83.35,210,124.58c7.68,4.51,10.55,9.13,10.72,18.34
		c1.99,112.69,35.99,214.01,110.16,300.07c67.01,77.75,151.52,126.86,252.07,146.79c132.13,26.19,253.65,2.09,360.09-83.04
		c77.87-62.27,126.93-143.75,152.8-239.53c11.27-41.71,16.83-84.27,16.66-127.5c-0.02-6.17,1.6-9.77,7.27-12.91
		c64.78-35.93,129.43-72.08,193.97-108.44c5.7-3.21,8.39-2.33,12.47,2.58c64.58,77.58,129.31,155.04,194.33,232.25
		c5.15,6.12,4.43,9.09-0.63,14.58c-40.79,44.29-78.49,90.93-107.1,144.28c-13.31,24.82-20.5,50.72-20.46,79.53
		c0.46,367.17,0.26,734.35,0.54,1101.53c0.01,9.67-2.57,11.73-11.9,11.72C1967.87,1916.77,1733.16,1916.83,1498.45,1916.83z"/>
	<path class="st5" d="M1555.28,1995.46c0,7.17,0,14.35,0,21.52c0,32.95-0.23,65.9,0.17,98.84c0.09,7.66-3.86,7.57-9.11,7.25
		c-4.82-0.29-10.3,1.88-10.23-7.02c0.35-46.67,0.24-93.35,0.06-140.02c-0.02-5.39,2.1-6.03,6.88-6.69
		c16.27-2.24,25.96,2.2,32.96,19.1c13.74,33.12,30.75,64.87,46.5,97.37c3.21-1.74,1.66-4.44,1.67-6.44
		c0.12-33.86,0.39-67.73-0.15-101.58c-0.13-8.39,3.72-8.28,9.81-8.41c6.5-0.14,9.63,0.73,9.56,8.68
		c-0.42,45.45-0.34,90.91-0.06,136.36c0.04,6.73-1.76,8.27-8.56,8.99c-12.27,1.29-18.09-3.36-23.15-14.45
		c-16.93-37.13-35.17-73.66-52.9-110.42C1558.14,1997.25,1558.12,1995.45,1555.28,1995.46z"/>
	<path class="st5" d="M2043.66,2086.13c0-36.54,0.32-72.21-0.23-107.87c-0.13-8.69,3.66-8.73,10.24-8.97
		c7.26-0.26,9.16,1.96,9.1,9.16c-0.33,45.15-0.38,90.3,0.03,135.45c0.07,8.09-2.91,8.88-9.94,9.47c-11.08,0.92-16.43-2.9-21.11-13.2
		c-16.23-35.78-33.79-70.95-50.87-106.34c-1.43-2.96-3.04-5.83-4.86-9.31c-2.28,2.91-1.33,5.67-1.34,8.13
		c-0.07,36.91-0.24,73.83,0.12,110.74c0.07,7.32-1.43,10.15-9.41,9.94c-7.17-0.19-10-1.41-9.93-9.47
		c0.41-45.15,0.37-90.3,0.02-135.45c-0.06-7.35,2.29-8.42,9.14-9.22c15.29-1.8,23.72,2.93,30.09,17.95
		c13.31,31.37,29.16,61.67,44.03,92.38C2039.75,2081.62,2040.1,2084.22,2043.66,2086.13z"/>
	<path class="st5" d="M1139.07,2045.43c0-22.56,0.2-45.13-0.13-67.68c-0.09-6.12,1.19-8.48,7.9-8.38
		c25.91,0.39,51.84,0.57,77.74-0.07c9.28-0.23,7.75,5.08,7.68,10.43c-0.07,5.2,1.81,10.8-7.58,10.44c-19.18-0.74-38.41,0-57.61-0.36
		c-5.95-0.11-8.08,1.52-7.68,7.61c0.5,7.59,0.68,15.29-0.04,22.84c-0.7,7.44,2.53,8.43,8.9,8.3c18.9-0.37,37.82,0.31,56.7-0.34
		c8.63-0.3,7.54,4.74,7.25,9.81c-0.27,4.83,2.7,11.26-7.06,10.97c-19.5-0.57-39.02,0.03-58.53-0.29c-5.63-0.09-7.4,1.56-7.23,7.23
		c0.39,13.1,0.45,26.23-0.02,39.32c-0.22,6.1,1.72,7.83,7.69,7.72c19.2-0.33,38.43,0.28,57.62-0.31c8.24-0.25,7.88,4.24,7.6,9.69
		c-0.26,5.15,1.92,11.01-7.45,10.83c-26.21-0.49-52.44-0.31-78.66-0.06c-5.63,0.05-7.28-1.74-7.22-7.3
		C1139.22,2092.39,1139.07,2068.91,1139.07,2045.43z"/>
	<path class="st5" d="M1106.69,2122.41c-14.64,1.32-26.87,2.67-36.41-11.94c-10.95-16.76-25-31.47-37.36-47.34
		c-4.05-5.2-6.59-6.55-11.34-0.5c-4.5,5.74-7.56,11.05-7.06,18.79c0.75,11.54,0,23.18,0.29,34.76c0.12,4.96-1.12,6.93-6.55,7.01
		c-14.05,0.2-14.05,0.49-14.05-13.24c0-43.93,0.28-87.86-0.23-131.78c-0.1-8.84,3.88-9.01,10.36-8.77
		c5.9,0.22,10.95-0.95,10.62,8.43c-0.76,21.83-0.24,43.71-0.24,68.19c12.13-14.2,22.71-26.54,33.24-38.92
		c7.7-9.05,15.89-17.76,22.86-27.35c5.78-7.95,12.37-11.94,22.25-10.33c3.2,0.52,6.55,0.08,11.88,0.08
		c-14.01,16.28-26.81,31.17-39.63,46.04c-2.39,2.77-4.99,5.38-7.21,8.27c-4.8,6.23-14.36,11.57-13.86,18.29
		c0.49,6.57,8.7,12.62,13.65,18.8c14.5,18.07,29.07,36.08,43.58,54.15C1103.12,2117.13,1104.54,2119.38,1106.69,2122.41z"/>
	<path class="st5" d="M1910.44,2123.05c-7.78,2.47-10.97-2.7-12.93-10.56c-2.14-8.55-5.35-16.83-7.75-25.33
		c-1.16-4.13-3.02-5.84-7.59-5.76c-15.56,0.3-31.13,0.28-46.69,0c-4.5-0.08-6.41,1.45-7.64,5.69c-2.88,9.94-6.23,19.74-9.52,29.55
		c-1.81,5.38-16.99,9.54-20.84,5.65c-2.49-2.51-0.06-5.2,0.73-7.62c10.16-30.96,20.43-61.89,30.68-92.83
		c4.98-15.04,10.21-30,14.85-45.14c1.56-5.08,3.42-7.4,9.3-7.37c18.68,0.11,18.82-0.24,24.76,17.52
		c14.01,41.89,27.9,83.83,41.79,125.77C1923.03,2123.01,1922.95,2123.04,1910.44,2123.05z"/>
	<path class="st6" d="M1439.88,1969.98c10.92-3.3,14.26,2.56,17.3,12.15c13.98,44.07,28.64,87.92,43.62,131.66
		c2.81,8.19,1.04,9.09-6.85,9.57c-9.77,0.59-14.36-2.43-16.17-12.11c-1.5-8.01-5.18-15.59-7.18-23.53
		c-1.32-5.23-3.97-6.44-9.01-6.33c-14.62,0.33-29.25,0.32-43.88,0.01c-5.28-0.11-8.16,1.04-9.62,6.74
		c-2.49,9.69-6.02,19.13-9.22,28.64c-1.76,5.24-17.23,9.39-20.87,5.51c-2.37-2.52,0.03-5.2,0.83-7.64
		c12.66-38.42,25.41-76.8,38.13-115.2c2.01-6.06,4.66-12.01,5.81-18.23C1424.66,1971.15,1429.8,1967.06,1439.88,1969.98z"/>
	<path class="st6" d="M1743.44,2055.82c0,20.13-0.36,40.26,0.17,60.37c0.24,9.12-5.66,6.76-10.32,6.77
		c-4.67,0.01-10.48,2.31-10.4-6.75c0.36-38.42-0.25-76.85,0.43-115.26c0.17-9.74-2.85-11.85-11.7-11.18
		c-10,0.76-20.12-0.09-30.17,0.28c-5.62,0.2-8.16-0.99-7.9-7.4c0.65-15.84-1.43-12.99,13.11-13.06c32.32-0.16,64.65,0.38,96.96-0.32
		c9.34-0.2,9.32,3.92,9.39,10.75c0.06,6.65-0.2,10.86-8.93,10.14c-10.6-0.87-21.37,0.34-31.99-0.39c-7.73-0.53-8.93,2.6-8.79,9.34
		C1743.7,2018,1743.44,2036.91,1743.44,2055.82z"/>
	<path class="st5" d="M1272.79,2045.29c0-22.89,0.39-45.78-0.2-68.65c-0.23-8.87,5.09-7.22,9.98-7.05
		c4.87,0.17,10.98-2.57,10.87,7.11c-0.44,39.05,0.01,78.11-0.35,117.17c-0.07,7.39,2.2,9.35,9.32,9.17
		c17.69-0.46,35.41,0.26,53.08-0.32c8.88-0.29,7.08,5.27,6.94,10.09c-0.13,4.6,2.51,10.55-6.67,10.39
		c-25.32-0.45-50.65-0.31-75.97-0.03c-5.77,0.06-7.17-1.95-7.11-7.39C1272.93,2092.28,1272.79,2068.79,1272.79,2045.29z"/>
	<path class="st2" d="M1925.56,2549.14c-7.49-30.6-14.57-59.52-21.64-88.44c-2.89-11.84-5.59-23.73-8.74-35.5
		c-1.12-4.17-0.66-6.69,3.47-8.83c7.52-3.89,15.16-12.15,21.98-11.41c6.05,0.65,11.21,10.89,16.48,17.14
		c30.84,36.61,61.59,73.3,92.39,109.94c1.36,1.62,2.91,3.08,5.66,5.97c-9.13-33.02-17.76-64.37-26.46-95.71
		c-7.08-25.51-14.13-51.04-21.43-76.49c-1.41-4.9-1.67-8.3,3.53-11.31c7.59-4.38,14.56-13.28,21.99-13.49
		c6.91-0.2,14.15,8.34,21.13,13.2c37.24,26,74.44,52.07,111.68,78.06c1.68,1.17,2.99,3.18,6.11,2.92c1.1-7.88,2.53-15.86,3.23-23.91
		c0.43-5.01,2.37-6.28,6.96-4.92c6.34,1.87,12.65,1.69,18.8-0.97c7.03-3.04,8.81-8.2,5.32-14.76c-2.42-4.54-5.45-8.82-8.61-12.91
		c-24.62-31.85-49.26-63.67-74.1-95.35c-3.93-5.01-5.72-8.49,1.2-12.49c6.98-4.03,12.83-14.25,19.62-12.9
		c5.94,1.19,10.19,11.24,15.02,17.49c22.92,29.68,45.83,59.37,68.63,89.15c3.14,4.1,5.9,8.54,8.41,13.06
		c14.23,25.64,2.47,53.17-26.51,62.14c-9.74,3.02-19.68,3.93-30.54,2.82c4.19,3.05,8.39,6.1,13.49,9.82
		c-8.67,6.17-16.84,11.82-24.79,17.75c-3.07,2.29-4.83,0.56-7.12-1.09c-7.92-5.69-16.14-10.98-23.87-16.91
		c-3.6-2.76-5.96-2.51-9.49,0.05c-15.78,11.46-31.67,22.79-47.8,33.76c-3.85,2.62-4.16,5.08-3,9c2.67,9.05,4.82,18.26,7.59,27.27
		c1.23,4,1.12,6.64-2.77,9.18c-13.76,8.97-26.49,19.43-40.76,27.72c-5.14,2.99-7.83,2.94-11.78-1.84
		c-20.58-24.92-41.55-49.52-62.38-74.24c-1.92-2.28-3.86-4.54-7.19-6.2c4.42,18.43,8.81,36.86,13.25,55.29
		c4.29,17.76,8.4,35.57,13.11,53.22c1.16,4.37,0.48,6.43-3.24,8.87c-19.28,12.63-19.24,12.77-36.47-2.49
		c-23.89-21.16-47.73-42.38-72.87-62.79c4.13,10.34,8.24,20.68,12.4,31.01c9.22,22.88,18.34,45.8,27.79,68.58
		c1.88,4.53,1.54,7.17-3.12,9.23c-3.04,1.34-5.75,3.43-8.64,5.12c-13.65,8-13.58,7.96-19.37-6.39
		c-20.28-50.27-40.52-100.55-61.04-150.73c-2.37-5.79-2.47-9.06,3.95-11.97c7.14-3.23,13.98-11.37,20.37-10.8
		c6.43,0.57,12.24,9.1,18.15,14.35c24.85,22.07,49.63,44.23,74.45,66.33C1920,2544.58,1922.11,2546.25,1925.56,2549.14z"/>
	<path class="st2" d="M738.35,2348.52c9.57,1.14,18.63,2.45,27.73,3.22c4.6,0.39,5.65,2,4.38,6.36c-2.15,7.36-3.29,14.91-1.51,22.57
		c2.21,9.55,9.32,15.82,18.4,16.3c9.76,0.53,17.48-4.95,20.35-14.9c3.02-10.49,1.73-21.23,0.91-31.84
		c-1.17-15.24-1.57-30.48-0.77-45.72c1.36-25.83,16.28-46.28,38.65-53.67c28.11-9.29,56.86,8.14,61.7,37.44
		c1.35,8.18,0.96,16.42,0.75,24.66c-0.1,4.07-1.47,6.35-5.91,6.04c-1.81-0.13-3.65,0.15-5.48,0.26c-7.3,0.44-15.98,3.52-21.54,0.62
		c-6.1-3.17,0.41-12.68-2.04-19.16c-0.64-1.69-0.73-3.59-1.37-5.27c-2.86-7.53-8.1-12.73-16.39-11.88
		c-8.57,0.89-12.37,7.34-12.65,15.49c-0.61,17.7,0.64,35.36,1.85,53.01c1.62,23.71-2.25,45.51-20.24,63.01
		c-18.99,18.47-43.31,23.03-64.41,11.65c-22.36-12.06-32.97-36.17-27.34-62.24c0.95-4.42,2.17-8.78,1.9-14.19
		c-6.74,7.36-13.69,14.54-20.12,22.16c-3.11,3.68-4.99,3.63-8.62,0.52c-19.45-16.63-19.58-16.53-13.9-41.5
		c8.78-38.6,17.62-77.2,26.42-115.79c0.4-1.75,0.64-3.53,1.4-7.87c-11.7,12.88-21.81,23.98-31.88,35.12
		c-17.37,19.23-34.81,38.4-51.98,57.81c-3.32,3.76-5.52,4.55-9.27,0.7c-6.12-6.29-16.68-11.49-17.87-18.43
		c-1.11-6.49,9.7-12.81,15.36-19.1c37.71-41.94,75.65-83.67,113.18-125.77c4.71-5.28,6.65-4.11,12-0.61
		c15.74,10.28,17.06,22.47,12.31,39.93c-10.63,39.06-18.69,78.81-27.76,118.29c-0.26,1.12-0.03,2.36-0.03,5.15
		c14.1-15.55,27.35-30.13,40.56-44.74c14.31-15.83,28.76-31.54,42.78-47.63c3.76-4.32,6.09-4.49,9.98-0.45
		c5.88,6.11,16.38,11.15,17.33,17.74c1,6.95-9.61,12.93-15.24,19.22c-29.3,32.69-58.78,65.22-88.17,97.83
		C740.41,2344.36,738.42,2345.53,738.35,2348.52z"/>
	<path class="st2" d="M1297.61,2703.53c-1.81,10.78-3.31,19.75-4.98,29.76c-9.71-4.98-18.8-9.69-27.94-14.3
		c-3.95-1.99-2.23-5.16-1.78-7.99c1.65-10.53,3.17-21.1,5.23-31.55c0.8-4.04-0.19-6.08-3.77-7.91
		c-17.9-9.16-35.74-18.44-53.49-27.88c-3.61-1.92-5.88-1.28-8.65,1.52c-7.5,7.59-15.6,14.61-22.89,22.4
		c-3.7,3.95-6.62,3.97-10.97,1.49c-7.88-4.51-16.03-8.53-24.65-13.06c30.94-30.21,61.26-59.82,91.59-89.42
		c18.98-18.53,38.13-36.89,56.86-55.67c3.79-3.8,6.68-4.33,10.8-1.42c1.48,1.05,3.21,1.74,4.83,2.6
		c19.61,10.36,19.25,10.3,15.51,32.68c-7.79,46.58-15.08,93.25-22.82,139.85c-1.05,6.3,0.37,8.14,6.72,6.82
		c6.25-1.29,12.79-1.26,18.96-2.77c5.84-1.43,6.81,0.75,6.6,5.82c-0.24,5.79,0.42,11.56,2.34,17.13
		c4.08,11.82,13.85,17.86,24.55,15.11c10.97-2.82,16.86-12.39,14.89-24.7c-2.52-15.73-9.11-30.29-13.34-45.53
		c-5.13-18.49-10.74-36.92-4.33-56.45c7.14-21.76,26.37-36.97,48.03-37.26c21.22-0.29,38.89,13.48,46.32,36.09
		c6.89,20.95,6.9,20.97-13.85,27.89c-4.33,1.44-9.26,4.62-12.94,3.57c-4.64-1.32-2.11-8-3.85-12.03c-1.21-2.79-1.98-5.79-3.35-8.48
		c-4.39-8.6-12.71-12.6-20.26-9.96c-7.18,2.51-10.73,10.3-8.3,19.91c2.38,9.44,5.46,18.71,8.26,28.04
		c4.54,15.15,10.2,29.95,12.35,45.79c3.37,24.73-11.56,53.88-33.87,64.99c-29.86,14.88-66.97-2.79-74.78-35.74
		C1299.31,2717.23,1298.82,2711.43,1297.61,2703.53z"/>
	<path class="st2" d="M920.02,2540.18c21.86-23.31,43.3-47.08,65.75-69.85c25.47-25.83,51.97-50.66,77.72-76.21
		c4.4-4.37,7.58-5.61,13.07-1.96c7.03,4.68,17.81,5.98,21.39,12.88c3.41,6.56-1.45,15.87-2.76,23.96
		c-7.17,44.2-14.38,88.39-21.56,132.58c-0.29,1.8-0.25,3.67-0.67,5.44c-1.14,4.9-0.8,7.54,5.61,5.97c6.17-1.51,12.73-1.39,18.98-2.7
		c5.26-1.1,7.15,0.11,6.92,5.67c-0.29,7.04,0.77,14.05,3.78,20.52c4.22,9.07,13.54,13.97,22.38,12.08
		c9.94-2.13,15.93-9.6,16.02-20.47c0.09-10.25-3.83-19.64-6.87-29.18c-5.82-18.28-12.8-36.3-13.64-55.74
		c-1.15-26.67,12.19-47.48,35.5-55.98c21.21-7.74,44.09,0.69,55.91,20.68c5.36,9.07,7.51,19.2,9.64,29.36
		c0.68,3.24,0.01,5.11-3.37,6.17c-9.57,2.99-19.07,6.21-28.98,9.47c-1.52-8.01-2.25-15.62-6.13-22.34
		c-4.64-8.04-12.71-11.88-19.78-9.31c-7.39,2.69-10.42,9.84-8.24,19.8c3.53,16.09,9.22,31.53,14.13,47.21
		c5.03,16.08,9.06,32.24,4.75,49.32c-7.6,30.12-31.88,49.71-59.62,47.75c-26.69-1.89-45.95-22.73-49.73-54.42
		c-3.61,6.24-3.05,12.81-4.08,18.95c-0.8,4.75-2.38,5.88-6.34,2.97c-0.24-0.18-0.57-0.23-0.82-0.4c-7.85-4.98-20.43-6.1-23.21-14.3
		c-2.7-7.96,1.76-18.39,3.23-27.71c2.26-14.33,2.3-14.3-10.59-20.98c-14.6-7.56-29.29-14.98-43.7-22.89
		c-4.55-2.5-7.34-2.22-10.94,1.57c-6.71,7.07-14.46,13.18-20.9,20.46c-4.65,5.26-8.56,4.8-13.87,1.7
		C931.92,2546.11,924.5,2542.53,920.02,2540.18z"/>
	<path class="st2" d="M1699.87,2529.67c-6.76,28.44-13.06,54.74-19.27,81.06c-3.98,16.86-3.92,16.86,10.18,26.54
		c28.14,19.31,56.27,38.64,85.73,58.87c-11.98,5.02-22.95,9.6-33.9,14.2c-3.71,1.56-5.59-1.67-7.9-3.23
		c-23.94-16.2-47.78-32.54-74.03-50.47c8.59,20.57,16,38.68,23.7,56.67c7.86,18.37,7.99,18.32-10.39,25.81
		c-12.67,5.16-12.77,5.2-17.99-7.24c-20.84-49.72-41.51-99.52-62.56-149.16c-2.78-6.56-1.9-9.69,4.95-11.84
		c7.47-2.34,15.94-9.23,21.66-7.29c6.03,2.04,6.92,13.24,9.99,20.47c4.71,11.11,9.53,22.17,15.25,35.44
		c5.75-23.94,11.14-45.55,16.05-67.27c1.41-6.24,4.34-9.61,10.41-12.05c35.37-14.21,68.18-33.71,102.27-50.58
		c7.34-3.63,10.44-3.03,13.18,4.54c2.75,7.59,11.41,15.39,8.94,21.76c-2.16,5.58-12.89,7.88-19.9,11.51
		c-8.66,4.48-17.22,9.22-26.14,13.11c-5.76,2.51-5.98,5.34-3.12,10.2c4.15,7.05,6.28,18.02,12.18,20.57
		c6.09,2.62,14.31-5.77,21.62-9.27c9.06-4.35,18.1-8.79,26.89-13.66c4.26-2.36,6.33-1.74,8.29,2.67c2.96,6.67,6.18,13.28,9.87,19.57
		c2.55,4.34,1.5,6.07-2.78,8.16c-14.78,7.2-29.23,15.06-44.05,22.17c-4.63,2.22-4.7,4.09-2.49,8.17
		c5.65,10.45,11.13,21.02,16.04,31.83c2.26,4.97,4.43,5.17,8.81,2.85c14.01-7.4,28.3-14.24,42.25-21.74
		c4.74-2.55,7.36-2.65,9.68,2.77c2.87,6.71,6.15,13.3,9.87,19.57c3.04,5.12,0.36,6.68-3.63,8.68
		c-23.7,11.85-47.43,23.67-70.89,35.98c-5.55,2.91-7.57,1.71-10.13-3.45c-13.8-27.84-27.93-55.52-41.94-83.25
		C1724.67,2578.76,1712.76,2555.19,1699.87,2529.67z"/>
	<path class="st2" d="M449.54,2140.53c28.85-16.46,56.6-32.3,84.37-48.11c31.76-18.09,63.58-36.07,95.24-54.34
		c4.63-2.67,7.87-3.19,11.86,1.01c6.05,6.38,16.2,11.36,17.97,18.56c1.62,6.63-5.42,15.45-8.84,23.22
		c-23.16,52.67-46.37,105.33-69.56,157.99c-0.71,1.61-1.37,3.23-0.71,5.77c12.64-14,25.28-28.01,37.92-42
		c29.02-32.12,58.1-64.18,86.98-96.43c3.48-3.89,5.63-5.33,9.84-0.76c5.74,6.24,16.39,11.13,17.37,17.72
		c1.03,6.93-9.58,12.93-15.21,19.21c-37.85,42.21-75.93,84.21-113.8,126.41c-3.66,4.07-5.99,5.26-10.59,0.89
		c-12.8-12.19-26.04-23.93-39.31-35.6c-3.49-3.07-4.36-5.45-2.1-9.92c4.8-9.5,8.53-19.54,13.24-29.1c2.03-4.12,1.26-6.41-1.99-9.28
		c-14.62-12.92-29.19-25.9-43.39-39.28c-3.96-3.73-6.84-3.52-11.05-1.03c-9.17,5.43-18.7,10.24-27.8,15.77
		c-3.54,2.15-5.63,1.94-8.57-0.9C464.61,2153.77,457.43,2147.62,449.54,2140.53z"/>
	<path class="st2" d="M2499.86,2075.85c-10.12-9.42-19.91-18.07-29.18-27.25c-16.9-16.74-33.31-33.97-50.32-50.6
		c-4.41-4.31-4.36-6.74,0.25-10.44c6.55-5.25,11.57-16.23,18.58-15.82c6.17,0.36,11.88,10.28,17.65,16.12
		c35.35,35.8,70.57,71.73,106.12,107.33c4.68,4.69,3.4,6.55-0.09,11.31c-10.97,14.98-23.62,16.16-40.77,11.07
		c-33.23-9.88-67.18-17.31-100.84-25.74c-2.88-0.72-5.81-1.25-8.72-1.86c-0.75,0.92-1.5,1.85-2.26,2.77
		c4.62,3.8,9.59,7.25,13.8,11.47c21.35,21.35,42.39,43,63.8,64.28c4.19,4.16,5.91,6.78,0.35,11.24
		c-6.37,5.11-11.64,15.15-18.03,15.71c-6.65,0.59-11.85-9.96-17.57-15.72c-35.44-35.68-70.63-71.62-106.11-107.26
		c-4.47-4.49-4.66-6.42-0.35-11.93c10.8-13.77,22.07-16.21,39.08-11.11c35.24,10.56,71.33,18.31,107.07,27.19
		C2494.02,2077.02,2495.65,2078.12,2499.86,2075.85z"/>
	<path class="st2" d="M2466.34,2200.73c-7.56,6.87-14.53,12.79-20.98,19.22c-3.33,3.32-5.9,2.9-9.53,0.81
		c-8.17-4.7-16.71-8.77-24.82-13.58c-3.88-2.3-6.25-1.81-9.47,1.19c-14.03,13.08-28.2,26.03-42.63,38.67c-4.04,3.53-4.15,6.5-2.1,11
		c3.78,8.3,6.79,16.94,10.49,25.28c1.76,3.97,1.27,6.63-2.09,9.46c-5.82,4.9-11.43,10.07-16.85,15.42
		c-3.86,3.81-5.09,1.97-6.72-1.98c-23.41-56.81-46.89-113.6-70.52-170.32c-1.57-3.77-1.12-5.92,1.96-8.47
		c7.02-5.82,12.98-15.29,20.78-17.07c7.41-1.69,15.53,6.73,23.26,10.82c46.8,24.75,93.54,49.61,140.29,74.44
		C2460.07,2197.04,2462.63,2198.61,2466.34,2200.73z"/>
	<path class="st2" d="M2320.3,2313.51c-0.57,25.06-14.14,41.77-35.75,51.8c-20.53,9.53-40.37,6.79-57.89-8.32
		c-15.8-13.62-28.1-30.4-41.47-46.21c-15.94-18.85-31.59-37.94-47.65-56.69c-3.62-4.22-3.79-6.41,1.03-9.77
		c6.96-4.84,13.65-15.19,19.76-14.69c6.09,0.5,11.43,11.39,16.9,17.9c20.19,24.04,40.28,48.16,60.45,72.21
		c2.54,3.03,5.23,5.96,8.07,8.71c10.61,10.28,22.89,10.94,33.43,1.9c10.45-8.96,12.25-21.63,3.81-33.47
		c-15.41-21.6-33.55-41.02-50.3-61.56c-9.63-11.81-19.29-23.6-29.36-35.03c-3.57-4.05-3.14-6.18,0.9-9.22
		c6.81-5.1,13.2-14.79,19.89-14.89c6.96-0.11,11.49,11.19,16.85,17.67c22.93,27.7,46.82,54.61,68.65,83.22
		C2315.83,2287.83,2320.67,2299.71,2320.3,2313.51z"/>
	<path class="st2" d="M505.02,2013.17c-0.1,20.67,4.4,41.26,0.47,62.04c-4.92,26.04-28.73,49.39-53.71,51.79
		c-35.64,3.43-63.7-28.42-57.35-65.1c3.28-18.92,3.28-18.92,22.46-16.98c15.09,1.53,15.04,1.52,13.42,15.83
		c-0.62,5.46-0.93,10.96,0.76,16.34c2.77,8.85,9.95,14.21,19.05,14.24c9.45,0.03,15.5-4.79,18.63-13.41
		c2.99-8.24,2.51-16.85,1.9-25.38c-1.26-17.65-2.52-35.3-1.43-53.01c1.81-29.47,19.56-50.86,46.32-55.81
		c24.57-4.55,48.06,11.07,53.51,35.78c1.98,8.99,2.17,18.13,1.52,27.32c-0.3,4.26-1.46,6.97-6.45,6.52c-2.4-0.22-4.86,0.24-7.3,0.39
		c-6.69,0.41-14.71,3.28-19.71,0.57c-5.38-2.92,0.14-11.51-1.4-17.62c-1.05-4.15-1.47-8.44-4.16-11.94c-4.05-5.27-9.31-7.93-16-6.16
		c-6.35,1.68-9.28,6.45-10.25,12.64c-0.19,1.2-0.27,2.43-0.27,3.65C505.01,2000.97,505.02,2007.07,505.02,2013.17z"/>
	<path class="st0" d="M1498.68,1896.04c-227.69,0-455.38-0.07-683.07,0.24c-9.4,0.01-11.4-2.38-11.38-11.51
		c0.67-327.18,1.06-654.36,1.43-981.54c0.03-27.77-1-55.56-0.33-83.31c0.48-19.55-5.2-37.1-12.81-54.54
		c-26.41-60.5-56.21-119.05-98.17-170.57c-14.12-17.33-29.64-33.3-49.14-44.68c-5.57-3.25-5.1-5.38-1.28-9.8
		c42.1-48.66,84-97.5,125.96-146.28c15.31-17.8,30.77-35.48,45.86-53.47c3.2-3.81,5.38-4.11,9.61-1.59
		c63.35,37.76,126.79,75.38,190.29,112.89c4.2,2.48,5.64,5.39,5.76,10.24c1.51,60.58,12.22,119.42,35.41,175.57
		c53.04,128.42,145.07,217,274.96,265.74c68.42,25.67,139.62,34.84,212.25,27.36c127.33-13.1,230.37-71.31,308.74-172.23
		c55.1-70.95,86.6-151.95,98.03-240.94c2.38-18.49,3.9-37,4.25-55.61c0.09-4.94,1.87-7.53,6.13-9.89
		c56.74-31.51,113.43-63.11,169.95-95.02c5.26-2.97,7.43-2.05,10.99,2.23c57.57,69.12,115.27,138.15,173.2,206.98
		c4.27,5.07,3.11,7.51-0.71,11.83c-36.03,40.71-69.59,83.27-96.07,130.99c-16.7,30.09-25.4,61.58-25.34,96.8
		c0.67,359.85,0.37,719.7,0.63,1079.55c0.01,9.13-2.6,10.78-11.16,10.77C1954.67,1895.98,1726.67,1896.04,1498.68,1896.04z"/>
	<path class="st3" d="M1858.7,1992.11c7.85,24.14,14.95,45.98,22.5,69.19c-14.13,0-27.36-0.05-40.59,0.03
		c-3.59,0.02-4.07-1.69-3.12-4.59C1844.3,2036.03,1851.09,2015.32,1858.7,1992.11z"/>
	<path class="st3" d="M1461.74,2060.97c-15.2,0-29.45,0-44.81,0c7.29-22.52,14.4-44.45,22.34-68.99
		C1447.18,2016.26,1454.36,2038.32,1461.74,2060.97z"/>
	<path class="st0" d="M2027.76,2389.11c18.92,13.19,36.35,25.33,54.38,37.9c-11.26,8.01-22.19,15.71-33.04,23.53
		c-2.92,2.11-4.32,1.15-5.15-1.92C2038.71,2429.35,2033.46,2410.08,2027.76,2389.11z"/>
	<path class="st0" d="M1237.41,2614.76c15.71-16.79,31.39-33.55,48.4-51.72c0.49,10.01-1.71,17.47-2.88,25.03
		c-2.09,13.51-4.25,27-6.39,40.5c-0.5,3.16-0.74,6.37-5.5,3.82C1259.34,2626.12,1247.53,2620.05,1237.41,2614.76z"/>
	<path class="st0" d="M1059.51,2444.8c-4.14,25.6-7.81,48.31-11.62,71.86c-12.63-6.54-24.17-12.62-35.82-18.46
		c-3.89-1.95-4.05-3.55-0.95-6.53C1026.66,2476.78,1042.05,2461.74,1059.51,2444.8z"/>
	<path class="st0" d="M610.57,2089.39c-7.28,16.53-14.52,33.09-21.85,49.6c-6.26,14.1-6.31,14.07-17.52,3.87
		c-6.97-6.34-13.96-12.67-20.94-19.01c-0.22-0.2-0.33-0.5-1.18-1.81c20.04-11.35,40.01-22.68,59.98-34
		C609.57,2088.5,610.07,2088.95,610.57,2089.39z"/>
	<path class="st0" d="M2317.49,2157.69c17.2,9.07,34.38,18.21,51.64,27.17c3.31,1.72,4.1,3.04,1.01,5.79
		c-8.89,7.89-17.73,15.85-26.4,23.99c-3.3,3.09-4.23,1.56-5.54-1.69c-7.29-17.98-14.75-35.89-22.16-53.82
		C2316.52,2158.65,2317.01,2158.17,2317.49,2157.69z"/>
	<path class="st7" d="M1049.87,1416.12c0-41.81,0.13-83.62-0.14-125.44c-0.04-6.37,1.65-8.37,8.11-8.19
		c14.94,0.43,29.9-0.01,44.86,0.08c3.95,0.02,6.56-0.41,8.26-4.97c4.91-13.12,10.28-26.08,16.1-38.82c1.87-4.1,0.54-6.02-2.03-8.56
		c-10.86-10.72-21.45-21.71-32.48-32.24c-4.06-3.87-4.94-6.12-0.38-10.65c59.96-59.6,119.74-119.36,179.36-179.3
		c4.29-4.31,6.36-3.53,10.03,0.29c10.57,11,21.64,21.52,32.21,32.52c3.29,3.43,5.86,3.73,10.17,1.78
		c11.65-5.27,23.52-10.08,35.47-14.62c4.98-1.9,7.04-4.41,6.87-10.02c-0.44-14.64,0.19-29.31-0.31-43.94
		c-0.23-6.66,2.12-8.02,8.33-8.01c83.62,0.19,167.25,0.24,250.87-0.06c7.63-0.03,9.08,2.53,8.86,9.35
		c-0.46,14.33,0.09,28.69-0.26,43.03c-0.13,5.12,1.59,7.57,6.34,9.38c12.23,4.66,24.36,9.62,36.28,15.04
		c4.5,2.05,6.99,1.03,10.13-2.22c10.39-10.75,21.21-21.09,31.58-31.86c3.79-3.94,6.01-5.11,10.69-0.4
		c59.59,59.97,119.4,119.71,179.33,179.33c4.15,4.13,3.8,6.24-0.18,10.03c-11.05,10.51-21.64,21.51-32.5,32.23
		c-2.75,2.71-4.48,4.73-2.35,9.27c5.8,12.41,11.01,25.12,15.82,37.95c1.75,4.67,4.17,5.73,8.71,5.65
		c14.65-0.25,29.31,0.23,43.94-0.25c6.6-0.21,8.83,1.24,8.8,8.43c-0.28,83.62-0.24,167.25-0.05,250.87
		c0.01,6.21-1.36,8.53-8.02,8.31c-14.94-0.5-29.91-0.01-44.86-0.25c-4.56-0.07-6.92,1.08-8.67,5.74
		c-4.69,12.54-9.94,24.89-15.48,37.09c-1.85,4.08-1.34,6.43,1.77,9.44c11.18,10.83,21.94,22.09,33.17,32.86
		c3.65,3.5,4.07,5.52,0.24,9.34c-60.32,60.09-120.53,120.31-180.61,180.65c-3.7,3.71-5.57,2.77-8.62-0.35
		c-10.87-11.14-22.08-21.94-32.89-33.13c-3.25-3.36-5.72-3.94-10.19-1.86c-11.59,5.4-23.43,10.33-35.45,14.7
		c-5.12,1.86-7.12,4.06-6.96,9.67c0.42,14.94-0.11,29.91,0.28,44.86c0.15,5.66-1.56,7.23-7.17,7.22
		c-84.54-0.16-169.08-0.16-253.62-0.01c-5.51,0.01-7.4-1.38-7.25-7.14c0.4-15.25-0.03-30.52,0.24-45.77
		c0.08-4.7-1.41-6.86-5.94-8.53c-12.28-4.54-24.42-9.51-36.34-14.94c-4.41-2.01-6.92-1.54-10.21,1.85
		c-10.82,11.18-22.09,21.92-32.93,33.08c-3.21,3.3-5.12,3.74-8.65,0.19c-60.09-60.32-120.28-120.54-180.6-180.63
		c-3.94-3.92-3.18-5.91,0.36-9.31c11-10.58,21.47-21.69,32.54-32.19c3.79-3.6,4.11-6.35,1.94-10.98
		c-5.16-11.03-10.21-22.18-14.11-33.69c-2.33-6.88-5.85-8.51-12.57-8.24c-13.41,0.54-26.87-0.27-40.27,0.33
		c-7.48,0.33-9.82-1.66-9.74-9.48C1050.09,1499.14,1049.87,1457.63,1049.87,1416.12z"/>
	<path class="st2" d="M1993.56,743.33c24.04-42.89,52.35-81.67,86.31-116.21c1.91-1.94,2.56-3.56,1.68-6.39
		c-2.17-7.03,0.94-12.18,6.4-16.64c23.58-19.32,46.99-38.85,70.53-58.22c9.69-7.97,19.39-6.71,27.6,3.29
		c8.33,10.16,7.71,19.68-2.01,27.76c-23.45,19.48-46.96,38.88-70.46,58.3c-2.34,1.94-4.8,5.05-7.72,4.47
		c-9.78-1.97-14.16,5.11-19.36,10.73c-20.51,22.18-39.16,45.79-55.71,71.9c19.96,3.26,38.58,8.6,55.49,18.75
		c28.4,17.05,44.83,41.51,45.99,75.21c0.13,3.82,1.09,6.9,3.45,10.04c12.57,16.72,21.03,35.56,27.97,55.18
		c4.42,12.5,3.86,24.2-3.18,35.91c-15.73,26.17-31.99,51.91-53.46,73.86c-4.29,4.38-4.22,10.87-8.2,15.06
		c-33.31,35.09-29.68,77.92-24.55,120.56c3.59,29.86,14.73,57.7,27.36,84.87c2.56,5.51,4.51,11.3,6.82,16.93
		c2.93,7.14,5.06,14.66-2.91,19.56c-8.63,5.31-14.53-0.86-19.17-7.1c-9.99-13.45-19.67-27.14-29.13-40.97
		c-31.83-46.52-62.18-94.11-98.07-137.72c-7.81-9.48-14.65-21.17-28.05-23.63c-38.98-7.16-68.51-31.94-100.02-52.97
		c-12.66-8.44-16.63-22.71-18.87-36.41c-3.8-23.22-4.19-46.72,0.7-70.04c3.19-15.25,10.29-27.42,25.6-33.04
		c4.43-1.63,4.06-4.5,3.69-7.89c-1.35-12.45-1.94-24.92-1.61-37.44c0.18-6.92,1.72-13.23,6.79-18.35
		c22.56-22.76,45.86-44.65,72.04-63.31c10.98-7.82,21.75-10.41,34.87-4.21C1969.16,722.15,1983.24,729.54,1993.56,743.33z"/>
	<path class="st2" d="M930.42,1735.29c-15.44-274.47-30.88-548.94-46.42-825.3c6.84,8.26,12.12,15.47,18.24,21.87
		c16.65,17.44,36.45,28.58,61.33,27.66c6.92-0.26,5.51,3.88,5.34,7.56c-1.62,34.11-3.36,68.22-4.99,102.33
		c-2.23,46.6-4.34,93.2-6.6,139.8c-4.3,88.62-8.66,177.23-13,265.85c-4.25,86.78-8.49,173.57-12.74,260.35
		C931.19,1735.39,930.8,1735.34,930.42,1735.29z"/>
	<path class="st2" d="M969.39,937.13c-47.46,0.12-85.44-37.85-85.38-85.37c0.06-47.05,37.88-85.04,84.75-85.12
		c47.57-0.08,85.8,37.72,85.92,84.95C1054.8,899.04,1016.94,937.01,969.39,937.13z"/>
	<path class="st2" d="M1081.75,870.27c28.85,27.65,57.01,54.59,85.11,81.59c15.07,14.48,15.01,14.52,0.09,29.72
		c-9.39,9.58-19.31,18.72-27.89,28.98c-5.94,7.11-9.57,6.02-15.61,0.35c-11.99-11.25-24.85-21.58-37.16-32.5
		c-3.39-3.01-5.09-3.6-8.08,0.84c-7.65,11.36-16.19,22.12-24.04,33.35c-2.91,4.16-5.64,5.11-10.64,3.48
		c-11.65-3.8-23.01-8.07-33-15.29c-6.49-4.69-12-10.23-14.59-18.21c-3.47-10.69-1.74-14.85,8.05-20.21
		c33.69-18.43,56.2-46.98,72.69-80.9C1078.28,878.19,1079.7,874.82,1081.75,870.27z"/>
	<path class="st2" d="M845.67,542c2.42,0.01,2.63,2.27,3.34,3.73c21.36,44.43,42.6,88.91,64.05,133.3c2.04,4.22,0.81,5.67-2.95,7.41
		c-14.09,6.5-28.14,13.1-41.97,20.12c-4.51,2.29-6.54,2.09-8.85-2.76c-20.75-43.71-41.75-87.3-62.64-130.95
		c-1.34-2.8-4.06-5.59,1.21-8.01c15.21-6.98,30.21-14.41,45.29-21.66C843.96,542.78,844.79,542.41,845.67,542z"/>
	<path class="st2" d="M851.42,798.43c-1.9,0.15-2.36-1.52-3.03-2.73c-5.6-10.11-10.99-20.34-16.76-30.35
		c-3.27-5.68,1.95-6.03,4.52-7.45c33.28-18.43,66.65-36.7,100-55c8.81-4.83,17.71-9.51,26.38-14.57c3.62-2.11,5.62-2.09,7.71,2.01
		c4.98,9.76,10.3,19.35,15.76,28.85c1.73,3.02,1.71,4.71-1.54,6.48c-43.51,23.82-86.98,47.73-130.46,71.6
		C853.19,797.71,852.32,798.02,851.42,798.43z"/>
	<path class="st0" d="M1499.97,1769.38c-195.41-0.13-353.28-158.57-353.17-354.45c0.11-194.13,158.85-352.05,353.74-351.89
		c194.54,0.16,352.64,158.29,352.86,352.92C1853.61,1610.56,1694.66,1769.51,1499.97,1769.38z"/>
	<path class="st3" d="M1979.6,1026.08c-10.48-0.11-26.27-4.17-41.74-10.15c-7.07-2.73-9.92-7.34-9.63-14.63
		c0.62-15.65,6.79-29.55,13.63-43.17c8.64-17.23,19.42-33.03,33.01-46.82c15.67-15.9,28.88-16.12,46.59-6.04
		c21.36,12.15,35.56,31.11,48.03,51.52c4.58,7.5,8.08,15.66,12.18,23.46c3.66,6.96,2,12.72-3.31,18.13
		c-8.38,8.54-19.05,13.07-29.9,16.98C2028.26,1022.65,2007.25,1025.88,1979.6,1026.08z"/>
	<path class="st3" d="M1906.08,1008.1c-22.94-10.36-42.52-25.46-62.69-39.53c-7.15-4.99-8.79-13.96-10.13-21.91
		c-3.5-20.85-3.81-41.94,0.19-62.76c3.05-15.83,22.82-27.98,38.97-24.67c8.64,1.78,17.3,3.68,25.74,6.24
		c22.74,6.9,45,15.22,67.59,24.5C1934.26,923.35,1909.8,960.02,1906.08,1008.1z"/>
	<path class="st3" d="M1861.46,812.76c-2.26-9.25,2.14-17.75,10.91-25.64c19.23-17.3,37.72-35.4,58.98-50.34
		c5.29-3.71,9.87-4.51,15.93-1.61c9.93,4.75,20.09,8.95,26.96,18.1c4.39,5.85,6.05,11.62,3.05,19.39
		c-6.17,15.98-4.62,33.01-3.86,49.72c0.58,12.77,1.72,25.52,3.08,38.23c0.7,6.57-0.58,7.93-7.09,5.32
		c-27.66-11.09-55.52-21.71-84.6-28.64c-1.48-0.35-2.96-0.7-4.45-0.99C1862.64,832.83,1862.64,832.83,1861.46,812.76z"/>
	<path class="st3" d="M1994.31,810.68c-5.1-24.52,11.14-43.21,26.99-62.01c2.38-2.82,5.35-5.36,9.43-4.66
		c31.78,5.45,59.99,16.57,75.24,47.96c0.8,1.64,1.49,3.34,2.08,5.07c5.88,17.39,4.9,19.24-11.7,25.74
		c-31.58,12.35-61,29.03-90.32,45.83c-5.57,3.19-7.57,3.3-8.16-3.9C1996.45,847.7,1994.45,830.75,1994.31,810.68z"/>
	<path class="st3" d="M2099.82,968.61c-18.1-35.66-39.12-67.33-75.94-86.12c28.08-15.34,55.12-31.1,84.8-41.68
		c7.17-2.56,11.76-1.55,15.73,5.53c7.91,14.11,15.16,28.45,19.93,43.95c1.58,5.13,1.67,9.79-1.12,14.83
		C2130.92,927.27,2116.45,947.88,2099.82,968.61z"/>
	<path class="st3" d="M2056.77,1037.61c-11.08,44.01-7.29,85.77,3.49,127.58c-27.31-38.21-53.08-77.19-83.5-114.95
		C2004.61,1050.18,2030.58,1046.93,2056.77,1037.61z"/>
	<path class="st0" d="M968.9,822.83c16.25-0.18,29.19,12.32,29.42,28.44c0.23,16.76-12.52,29.82-29.05,29.76
		c-16.25-0.06-29.05-12.77-29.14-28.95C940.04,835.98,952.79,823.01,968.9,822.83z"/>
	<path class="st8" d="M1687.72,1340.06c-6.88,26.54,3.64,52.79,10.41,79.54c1.39,5.48,4.27,9.87,7.98,14.09
		c24.15,27.49,48.59,54.74,70.2,84.34c1.97,2.7,3.86,5.49,5.6,8.35c9,14.81,8.12,25.92-3.38,39.2
		c-11.83,13.66-25.7,25.18-39.62,36.57c-50.26,41.17-102.69,79.49-155.22,117.68c-10.44,7.59-19.06,7.33-29.16-0.66
		c-14.11-11.16-28.24-22.28-42.11-33.74c-4.27-3.53-8.56-4.9-14.07-4.88c-55.53,0.18-111.07,0.12-166.61,0.1
		c-18.81-0.01-26.65-8.79-24.74-27.45c1.27-12.43,2.05-24.93,3.71-37.3c0.6-4.47-1.83-6.78-3.93-9.64
		c-24.05-32.63-49.89-64.12-69.46-99.73c-7.68-13.97-15.75-29.09-12.17-46.59c3.12-15.28,12.62-24.93,27.22-29.04
		c14.43-4.06,27.85-0.43,37.3,11.05c5.46,6.63,11.35,9.18,19.16,10.03c6.04,0.66,12.12,1.62,17.98,3.17
		c6.41,1.69,8.9-0.21,10.47-6.76c20.89-86.78,42.05-173.5,63.26-260.21c1.17-4.77,0.87-8.11-2.62-12.27
		c-11.68-13.95-11.33-34.43-0.03-48.06c11.06-13.35,30.32-17.59,45.66-10.05c16.8,8.26,25.08,25.98,20,44.42
		c-1.36,4.94-0.16,7.64,3.07,11.08c38.19,40.69,76.31,81.45,114.14,122.47c4.66,5.06,7.19,4.99,12.1,0.54
		c11.51-10.43,23.6-20.24,35.56-30.18c13.03-10.83,25.4-9.11,34.71,5.05C1676.53,1291.53,1686.96,1313.03,1687.72,1340.06z"/>
	<path class="st8" d="M1702.92,1189.81c16.26-0.04,29.7,13.45,29.49,29.59c-0.2,15.84-13.37,28.79-29.31,28.84
		c-16.12,0.05-29.09-12.64-29.31-28.67C1673.56,1203.05,1686.48,1189.85,1702.92,1189.81z"/>
	<path class="st0" d="M1479.53,1247.88c21.22,22.81,40.73,43.66,60.09,64.65c10.08,10.94,18.72,23.61,29.22,33.59
		c16.39,15.58,30.93,32.7,46.49,48.92c13.71,14.3,26.04,29.95,40.09,43.88c10.1,10.02,5.38,21.71,6.22,32.72
		c0.31,4.07-4.89,2.31-7.55,2.32c-35.09,0.13-70.17,0.08-105.26,0.08c-19.83,0-39.66-0.02-59.49,0.02c-3.5,0.01-6.43,0.32-6.62-4.89
		C1480.02,1396.36,1479.39,1323.52,1479.53,1247.88z"/>
	<path class="st0" d="M1436.04,1218.86c1.33,74.28,2.06,148.03,3.85,221.77c0.18,7.31-0.02,14.69,0.93,21.91
		c1.03,7.77-2.23,8.4-8.65,7.41c-15.65-2.41-31.35-4.53-47.09-6.21c-6.51-0.69-8.46-1.96-6.62-9.32
		c14.27-56.99,27.95-114.13,41.83-171.22C1425.52,1261.75,1430.79,1240.31,1436.04,1218.86z"/>
	<path class="st0" d="M1573.94,1515.8c26.54,0,53.07,0.2,79.61-0.14c6.52-0.08,9.47,1.17,8.94,8.44c-0.64,8.8-0.58,17.71-0.01,26.52
		c0.41,6.35-2.07,7.5-7.79,7.46c-38.43-0.22-76.87,0.21-115.29-0.3c-12.06-0.16-22.37,2.72-30.77,11.12
		c-4.28,4.27-5.75,2.22-8.79-1.43c-10.7-12.85-14.42-27.64-14.7-44c-0.1-6.1,1.29-7.84,7.37-7.78
		C1519.64,1515.97,1546.79,1515.81,1573.94,1515.8z"/>
	<path class="st0" d="M1599.09,1599.69c18.92,0,37.84-0.05,56.76,0.06c2.43,0.01,6.05-1.47,6.73,2.58c0.54,3.21,0.77,6.46-2.66,8.99
		c-27.45,20.3-54.81,40.73-82.15,61.19c-2.6,1.94-4.1,1.47-5.85-1.06c-13.84-20.07-27.87-40.02-41.6-60.16
		c-3.36-4.93,2.81-11.47,11.09-11.54C1560.64,1599.58,1579.87,1599.69,1599.09,1599.69z"/>
	<path class="st9" d="M1451.72,1637.36c-3.02,2.59-5.84,1.53-8.38,1.54c-27.72,0.09-55.46-0.33-83.17,0.29
		c-8.56,0.19-9.96-2.21-9.03-10.16c2.53-21.65,4.14-43.4,6.26-66.62C1389.46,1587.89,1420.47,1612.53,1451.72,1637.36z"/>
	<path class="st0" d="M1467.14,1596.21c-39.27-31.21-78.44-62.34-117.6-93.47c0.17-0.5,0.35-1,0.52-1.5
		c19.01,2.5,38.03,5.01,57.04,7.5c9.96,1.3,19.91,2.64,29.89,3.8c4.26,0.5,6.59,2.1,6.27,6.9c-0.24,3.62,0.51,7.29,0.56,10.94
		c0.32,21.99,6.3,41.97,20.58,59.1c1.35,1.62,2.4,3.5,3.55,5.29C1468.01,1594.87,1467.71,1595.2,1467.14,1596.21z"/>
	<path class="st10" d="M1703.53,1494.73c14.32,15.93,26.07,30.55,37.41,45.53c2.17,2.87,0.3,4.32-1.61,6
		c-10.95,9.61-21.87,19.25-34.14,30.05C1703.13,1548.89,1704.32,1523.2,1703.53,1494.73z"/>
	<path class="st0" d="M1642.45,1362.52c-8.7-9.44-16.42-17.99-24.36-26.33c-2.81-2.96-2.49-4.93,0.58-7.36
		c6.42-5.09,12.65-10.42,19.21-15.86C1649.24,1328.4,1644.86,1344.9,1642.45,1362.52z"/>
	<path class="st0" d="M1315.13,1547.64c-9.04-12.69-18.07-25.38-27.11-38.07c0.4-0.41,0.8-0.81,1.19-1.22
		c8.88,6.98,18.02,13.67,26.56,21.05c6.15,5.32-0.83,11.95,1.66,17.89C1316.66,1547.41,1315.9,1547.52,1315.13,1547.64z"/>
	<path class="st8" d="M1577.23,1384.38c15.79-0.16,29.18,12.82,29.54,28.65c0.38,16.3-12.74,29.82-29.08,29.96
		c-15.94,0.14-29.18-12.67-29.56-28.58C1547.75,1398.26,1561.05,1384.53,1577.23,1384.38z"/>
</g>
</svg>
